<svg width="36" height="38" viewBox="0 0 36 38" fill="none" xmlns="http://www.w3.org/2000/svg">
<g filter="url(#filter0_d)">
<path d="M21.1602 29.7373H14.1729V34H7.58105V29.7373H3.12061V24.3979H7.58105V22.728H3.12061V17.3887H7.58105V2.00781H20.0176C22.4199 2.00781 24.5293 2.43994 26.3457 3.3042C28.1621 4.16846 29.5684 5.40625 30.5645 7.01758C31.5752 8.61426 32.0806 10.438 32.0806 12.4888C32.0806 15.6528 31.0039 18.1504 28.8506 19.9814C26.7119 21.8125 23.731 22.728 19.9077 22.728H14.1729V24.3979H21.1602V29.7373ZM14.1729 17.3887H19.8638C23.5552 17.3887 25.4009 15.77 25.4009 12.5327C25.4009 10.9946 24.9321 9.75684 23.9946 8.81934C23.0571 7.86719 21.7607 7.38379 20.1055 7.36914H14.1729V17.3887Z" fill="white"/>
</g>
<defs>
<filter id="filter0_d" x="0.120605" y="0.0078125" width="34.96" height="37.9922" filterUnits="userSpaceOnUse" color-interpolation-filters="sRGB">
<feFlood flood-opacity="0" result="BackgroundImageFix"/>
<feColorMatrix in="SourceAlpha" type="matrix" values="0 0 0 0 0 0 0 0 0 0 0 0 0 0 0 0 0 0 127 0"/>
<feOffset dy="1"/>
<feGaussianBlur stdDeviation="1.5"/>
<feColorMatrix type="matrix" values="0 0 0 0 0.192157 0 0 0 0 0.196078 0 0 0 0 0.207843 0 0 0 0.5 0"/>
<feBlend mode="normal" in2="BackgroundImageFix" result="effect1_dropShadow"/>
<feBlend mode="normal" in="SourceGraphic" in2="effect1_dropShadow" result="shape"/>
</filter>
</defs>
</svg>
